<?xml version="1.0" standalone="no"?>
<!DOCTYPE svg PUBLIC "-//W3C//DTD SVG 20010904//EN"
 "http://www.w3.org/TR/2001/REC-SVG-20010904/DTD/svg10.dtd">
<svg version="1.0" xmlns="http://www.w3.org/2000/svg"
 width="512.000000pt" height="512.000000pt" viewBox="0 0 512.000000 512.000000"
 preserveAspectRatio="xMidYMid meet">
<metadata>
Created by potrace 1.11, written by Peter Selinger 2001-2013
</metadata>
<g transform="translate(0.000000,512.000000) scale(0.100000,-0.100000)"
fill="#000000" stroke="none">
<path d="M2433 4804 c-249 -42 -429 -180 -580 -444 -94 -163 -669 -1314 -878
-1755 -457 -965 -482 -1032 -483 -1269 -1 -67 5 -150 13 -186 77 -358 336
-633 690 -731 111 -30 303 -34 434 -7 271 55 508 197 788 473 l122 120 127
-123 c294 -285 535 -426 815 -476 117 -21 309 -15 409 14 320 91 559 321 658
630 48 149 64 343 38 460 -3 14 -8 39 -12 55 -8 44 -71 206 -121 313 -23 52
-43 95 -43 97 0 1 -31 69 -70 149 -38 81 -70 149 -70 150 0 2 -26 59 -59 127
-32 68 -74 158 -94 199 -135 289 -504 1035 -668 1350 -50 96 -124 239 -165
318 -136 263 -261 399 -446 485 -115 54 -272 74 -405 51z m225 -295 c64 -12
153 -58 211 -111 86 -78 123 -146 524 -948 240 -480 323 -650 472 -965 29 -60
76 -159 105 -220 83 -174 275 -596 301 -660 44 -110 59 -302 32 -423 -18 -83
-80 -212 -130 -272 -80 -97 -203 -180 -318 -216 -166 -50 -362 -32 -539 50
-163 75 -301 180 -493 374 l-92 94 81 106 c330 432 494 827 482 1159 -4 107
-13 155 -47 243 -123 321 -454 506 -817 456 -138 -19 -301 -93 -398 -181 -388
-352 -305 -939 235 -1667 42 -57 81 -106 87 -110 7 -5 -44 -61 -129 -145 -205
-201 -367 -311 -553 -374 -91 -31 -105 -33 -232 -33 -119 0 -145 4 -216 27
-304 100 -494 410 -445 726 19 121 64 239 210 544 39 82 71 150 71 152 0 2 36
78 80 170 44 92 80 168 80 170 0 6 206 428 371 760 266 536 512 1011 562 1085
75 110 188 188 312 213 74 15 93 14 193 -4z m42 -1619 c251 -74 365 -331 286
-642 -59 -234 -203 -500 -424 -786 l-18 -23 -65 88 c-176 236 -281 423 -347
618 -96 284 -64 511 90 651 54 48 170 102 238 110 30 3 56 7 58 9 9 7 127 -8
182 -25z"/>
</g>
</svg>
